<svg width="1440" height="1024" viewBox="0 0 1440 1024" fill="none" xmlns="http://www.w3.org/2000/svg">
<g clip-path="url(#clip0_21_14)">
<g opacity="0.12">
<line x1="1243" y1="551.5" x2="198" y2="551.5" stroke="#131313"/>
<line x1="1359" y1="231.5" x2="82" y2="231.5" stroke="#131313"/>
<line x1="1359" y1="295.5" x2="82" y2="295.5" stroke="#131313"/>
<line x1="1243" y1="615.5" x2="198" y2="615.5" stroke="#131313"/>
<line x1="1243" y1="359.5" x2="198" y2="359.5" stroke="#131313"/>
<line x1="1359" y1="39.5" x2="82" y2="39.5" stroke="#131313"/>
<line x1="1359" y1="679.5" x2="82" y2="679.5" stroke="#131313"/>
<line x1="1243" y1="423.5" x2="198" y2="423.5" stroke="#131313"/>
<line x1="1359" y1="103.5" x2="82" y2="103.5" stroke="#131313"/>
<line x1="1243" y1="487.5" x2="198" y2="487.5" stroke="#131313"/>
<line x1="1359" y1="167.5" x2="82" y2="167.5" stroke="#131313"/>
<line x1="1440" y1="775.5" y2="775.5" stroke="#131313"/>
<line x1="1440" y1="943.5" y2="943.5" stroke="#131313"/>
<line x1="1440" y1="1023.5" y2="1023.5" stroke="#131313"/>
<line x1="1358.5" y1="13" x2="1358.5" y2="944" stroke="#131313"/>
<line x1="778.5" y1="231" x2="778.5" y2="488" stroke="#131313"/>
<line x1="430.5" y1="231" x2="430.5" y2="488" stroke="#131313"/>
<line x1="1010.5" y1="231" x2="1010.5" y2="488" stroke="#131313"/>
<line x1="82.5" y1="13" x2="82.5" y2="944" stroke="#131313"/>
<line x1="1126.5" y1="103" x2="1126.5" y2="614" stroke="#131313"/>
<line x1="198.5" y1="13" x2="198.5" y2="776" stroke="#131313"/>
<line x1="1242.5" y1="13" x2="1242.5" y2="776" stroke="#131313"/>
<line x1="662.5" y1="231" x2="662.5" y2="488" stroke="#131313"/>
<line x1="314.5" y1="103" x2="314.5" y2="614" stroke="#131313"/>
<g clip-path="url(#clip1_21_14)">
<mask id="path-25-inside-1_21_14" fill="white">
<path d="M83 680L-36 680L-36 295L83 295L83 680Z"/>
</mask>
<line x1="143.35" y1="634.876" x2="-52.1293" y2="726.03" stroke="#131313"/>
<line x1="143.35" y1="403.488" x2="-52.1293" y2="494.641" stroke="#131313"/>
<line x1="143.35" y1="519.182" x2="-52.1293" y2="610.335" stroke="#131313"/>
<line x1="143.35" y1="287.793" x2="-52.1293" y2="378.947" stroke="#131313"/>
<line x1="143.35" y1="618.349" x2="-52.1293" y2="709.502" stroke="#131313"/>
<line x1="143.35" y1="386.96" x2="-52.1293" y2="478.113" stroke="#131313"/>
<line x1="143.35" y1="502.654" x2="-52.1293" y2="593.808" stroke="#131313"/>
<line x1="143.35" y1="271.265" x2="-52.1293" y2="362.419" stroke="#131313"/>
<line x1="143.35" y1="601.821" x2="-52.1293" y2="692.974" stroke="#131313"/>
<line x1="143.35" y1="370.432" x2="-52.1293" y2="461.586" stroke="#131313"/>
<line x1="143.35" y1="486.126" x2="-52.1293" y2="577.28" stroke="#131313"/>
<line x1="143.35" y1="254.738" x2="-52.1293" y2="345.891" stroke="#131313"/>
<line x1="143.35" y1="585.293" x2="-52.1293" y2="676.447" stroke="#131313"/>
<line x1="143.35" y1="353.904" x2="-52.1293" y2="445.058" stroke="#131313"/>
<line x1="143.35" y1="469.599" x2="-52.1293" y2="560.752" stroke="#131313"/>
<line x1="143.35" y1="238.21" x2="-52.1293" y2="329.363" stroke="#131313"/>
<line x1="143.35" y1="568.765" x2="-52.1293" y2="659.919" stroke="#131313"/>
<line x1="143.35" y1="337.376" x2="-52.1293" y2="428.53" stroke="#131313"/>
<line x1="143.35" y1="453.071" x2="-52.1293" y2="544.224" stroke="#131313"/>
<line x1="143.35" y1="221.682" x2="-52.1293" y2="312.836" stroke="#131313"/>
<line x1="143.35" y1="552.238" x2="-52.1293" y2="643.391" stroke="#131313"/>
<line x1="143.35" y1="320.849" x2="-52.1293" y2="412.002" stroke="#131313"/>
<line x1="143.35" y1="436.543" x2="-52.1293" y2="527.697" stroke="#131313"/>
<line x1="143.35" y1="205.154" x2="-52.1293" y2="296.308" stroke="#131313"/>
<line x1="143.35" y1="535.71" x2="-52.1293" y2="626.863" stroke="#131313"/>
<line x1="143.35" y1="304.321" x2="-52.1293" y2="395.474" stroke="#131313"/>
<line x1="143.35" y1="420.015" x2="-52.1293" y2="511.169" stroke="#131313"/>
</g>
<path d="M83 679L-36 679L-36 681L83 681L83 679ZM-36 296L83 296L83 294L-36 294L-36 296Z" fill="#131313" mask="url(#path-25-inside-1_21_14)"/>
<g clip-path="url(#clip2_21_14)">
<mask id="path-54-inside-2_21_14" fill="white">
<path d="M1477 680L1358 680L1358 295L1477 295L1477 680Z"/>
</mask>
<line x1="1537.35" y1="634.876" x2="1341.87" y2="726.03" stroke="#131313"/>
<line x1="1537.35" y1="403.488" x2="1341.87" y2="494.641" stroke="#131313"/>
<line x1="1537.35" y1="519.182" x2="1341.87" y2="610.335" stroke="#131313"/>
<line x1="1537.35" y1="287.793" x2="1341.87" y2="378.947" stroke="#131313"/>
<line x1="1537.35" y1="618.349" x2="1341.87" y2="709.502" stroke="#131313"/>
<line x1="1537.35" y1="386.96" x2="1341.87" y2="478.113" stroke="#131313"/>
<line x1="1537.35" y1="502.654" x2="1341.87" y2="593.808" stroke="#131313"/>
<line x1="1537.35" y1="271.265" x2="1341.87" y2="362.419" stroke="#131313"/>
<line x1="1537.35" y1="601.821" x2="1341.87" y2="692.974" stroke="#131313"/>
<line x1="1537.35" y1="370.432" x2="1341.87" y2="461.585" stroke="#131313"/>
<line x1="1537.35" y1="486.126" x2="1341.87" y2="577.28" stroke="#131313"/>
<line x1="1537.35" y1="254.738" x2="1341.87" y2="345.891" stroke="#131313"/>
<line x1="1537.35" y1="585.293" x2="1341.87" y2="676.447" stroke="#131313"/>
<line x1="1537.35" y1="353.904" x2="1341.87" y2="445.058" stroke="#131313"/>
<line x1="1537.35" y1="469.599" x2="1341.87" y2="560.752" stroke="#131313"/>
<line x1="1537.35" y1="238.21" x2="1341.87" y2="329.363" stroke="#131313"/>
<line x1="1537.35" y1="568.765" x2="1341.87" y2="659.919" stroke="#131313"/>
<line x1="1537.35" y1="337.376" x2="1341.87" y2="428.53" stroke="#131313"/>
<line x1="1537.35" y1="453.071" x2="1341.87" y2="544.224" stroke="#131313"/>
<line x1="1537.35" y1="221.682" x2="1341.87" y2="312.835" stroke="#131313"/>
<line x1="1537.35" y1="552.237" x2="1341.87" y2="643.391" stroke="#131313"/>
<line x1="1537.35" y1="320.849" x2="1341.87" y2="412.002" stroke="#131313"/>
<line x1="1537.35" y1="436.543" x2="1341.87" y2="527.697" stroke="#131313"/>
<line x1="1537.35" y1="205.154" x2="1341.87" y2="296.308" stroke="#131313"/>
<line x1="1537.35" y1="535.71" x2="1341.87" y2="626.863" stroke="#131313"/>
<line x1="1537.35" y1="304.321" x2="1341.87" y2="395.474" stroke="#131313"/>
<line x1="1537.35" y1="420.015" x2="1341.87" y2="511.169" stroke="#131313"/>
</g>
<path d="M1477 679L1358 679L1358 681L1477 681L1477 679ZM1358 296L1477 296L1477 294L1358 294L1358 296Z" fill="#131313" mask="url(#path-54-inside-2_21_14)"/>
</g>
</g>
<defs>
<clipPath id="clip0_21_14">
<rect width="1440" height="1024" fill="white" transform="translate(1440 1024) rotate(180)"/>
</clipPath>
<clipPath id="clip1_21_14">
<path d="M83 680L-36 680L-36 295L83 295L83 680Z" fill="white"/>
</clipPath>
<clipPath id="clip2_21_14">
<path d="M1477 680L1358 680L1358 295L1477 295L1477 680Z" fill="white"/>
</clipPath>
</defs>
</svg>
